<svg xmlns="http://www.w3.org/2000/svg" xmlns:xlink="http://www.w3.org/1999/xlink" width="500" zoomAndPan="magnify" viewBox="0 0 375 374.999991" height="500" preserveAspectRatio="xMidYMid meet" version="1.0"><defs><clipPath id="41fe99d2bf"><path d="M 27 6.074219 L 348 6.074219 L 348 312 L 27 312 Z M 27 6.074219 " clip-rule="nonzero"/></clipPath><clipPath id="31680cf874"><path d="M 182 82 L 193 82 L 193 369.074219 L 182 369.074219 Z M 182 82 " clip-rule="nonzero"/></clipPath></defs><g clip-path="url(#41fe99d2bf)"><path fill="#da6220" d="M 345.921875 150.84375 L 256.578125 72.679688 L 256.578125 10.988281 C 256.578125 8.269531 254.382812 6.074219 251.660156 6.074219 C 248.941406 6.074219 246.746094 8.269531 246.746094 10.988281 L 246.746094 64.09375 L 192.085938 16.261719 C 190.25 14.648438 187.503906 14.648438 185.652344 16.234375 L 29.25 150.816406 C 27.191406 152.585938 26.957031 155.691406 28.722656 157.75 C 29.691406 158.882812 31.070312 159.460938 32.453125 159.460938 C 33.585938 159.460938 34.730469 159.074219 35.65625 158.273438 L 188.828125 26.46875 L 246.757812 77.140625 L 246.757812 307.078125 C 246.757812 309.796875 248.953125 311.992188 251.675781 311.992188 C 254.394531 311.992188 256.589844 309.796875 256.589844 307.078125 L 256.589844 85.742188 L 339.460938 158.246094 C 341.503906 160.027344 344.609375 159.820312 346.390625 157.789062 C 348.175781 155.746094 347.964844 152.640625 345.921875 150.84375 Z M 345.921875 150.84375 " fill-opacity="1" fill-rule="nonzero"/></g><path fill="#da6220" d="M 62.570312 179.964844 C 59.851562 179.964844 57.652344 182.160156 57.652344 184.882812 L 57.652344 233.59375 C 57.652344 236.3125 59.851562 238.507812 62.570312 238.507812 C 65.289062 238.507812 67.488281 236.3125 67.488281 233.59375 L 67.488281 184.882812 C 67.488281 182.175781 65.289062 179.964844 62.570312 179.964844 Z M 62.570312 179.964844 " fill-opacity="1" fill-rule="nonzero"/><path fill="#da6220" d="M 315.113281 179.964844 C 312.394531 179.964844 310.199219 182.160156 310.199219 184.882812 L 310.199219 233.59375 C 310.199219 236.3125 312.394531 238.507812 315.113281 238.507812 C 317.835938 238.507812 320.03125 236.3125 320.03125 233.59375 L 320.03125 184.882812 C 320.03125 182.175781 317.835938 179.964844 315.113281 179.964844 Z M 315.113281 179.964844 " fill-opacity="1" fill-rule="nonzero"/><path fill="#da6220" d="M 125.390625 122.292969 C 122.667969 122.292969 120.472656 124.488281 120.472656 127.207031 L 120.472656 287.429688 C 120.472656 290.148438 122.667969 292.34375 125.390625 292.34375 C 128.109375 292.34375 130.304688 290.148438 130.304688 287.429688 L 130.304688 127.207031 C 130.304688 124.488281 128.109375 122.292969 125.390625 122.292969 Z M 125.390625 122.292969 " fill-opacity="1" fill-rule="nonzero"/><g clip-path="url(#31680cf874)"><path fill="#da6220" d="M 187.570312 82.347656 C 184.851562 82.347656 182.65625 84.542969 182.65625 87.261719 L 182.65625 364.128906 C 182.65625 366.851562 184.851562 369.046875 187.570312 369.046875 C 190.292969 369.046875 192.488281 366.851562 192.488281 364.128906 L 192.488281 87.246094 C 192.472656 84.542969 190.277344 82.347656 187.570312 82.347656 Z M 187.570312 82.347656 " fill-opacity="1" fill-rule="nonzero"/></g></svg>